# xmcd
#
# Track frame offsets: 
#        150
#        14911
#        34779
#        44192
#        53618
#        70688
#        90256
#        105226
#        122323
#        133114
#        144357
#        154322
#        171449
#        183124
#        199421
#
# Disc length: 2774 seconds
#
# Revision: 1
# Processed by: cddbd v1.5.2PL0 Copyright (c) Steve Scherf et al.
# Submitted via: ExactAudioCopyFreeDBPlugin 1.0
#
DISCID=cc0ad40f
DTITLE=Brady Winterstein - Happy Together
DYEAR=2011
DGENRE=Jazz
TTITLE0=Happy Together
TTITLE1=Harlem Nocturne
TTITLE2=Fleche d'Or
TTITLE3=Lady Madona
TTITLE4=Suicide Is Painless
TTITLE5=Samoiserie
TTITLE6=You Rascal You
TTITLE7=Joseph Joseph
TTITLE8=Swing 39
TTITLE9=I'Ve Had My Moments
TTITLE10=Dinette
TTITLE11=Solo Of Bro
TTITLE12=Softly As In A Morning Sunrise
TTITLE13=Solitude
TTITLE14=La Gitane
EXTD=YEAR: 2010
EXTT0=
EXTT1=
EXTT2=
EXTT3=
EXTT4=
EXTT5=
EXTT6=
EXTT7=
EXTT8=
EXTT9=
EXTT10=
EXTT11=
EXTT12=
EXTT13=
EXTT14=
PLAYORDER=
